<svg width="57" height="57" viewBox="0 0 57 57" fill="none" xmlns="http://www.w3.org/2000/svg">
<path d="M27.1989 56.0675C27.2532 56.0552 27.0489 56.0365 26.7229 56.0238C23.7911 55.9096 20.5756 55.2228 17.7934 54.1164C12.9414 52.187 8.90556 49.1169 5.67929 44.901C5.18624 44.2568 4.53337 43.2957 4.56635 43.2628C4.57646 43.2527 10.2441 43.2097 17.1612 43.1674C24.0783 43.125 29.8146 43.0803 29.9087 43.068L30.0796 43.0457L32.9369 37.6224C34.6262 34.4161 35.7953 32.163 35.7967 32.111C35.799 32.025 35.7264 31.9885 32.6573 30.5297C30.9293 29.7084 29.5055 29.0273 29.4933 29.0161C29.4723 28.9968 30.5709 27.1676 30.6519 27.0868C30.6812 27.0577 31.6028 27.4977 34.7199 29.029C36.9365 30.1179 38.755 31.0235 38.7609 31.0413C38.7669 31.0592 37.4183 33.7752 35.7641 37.0769C33.7136 41.1696 32.7633 43.0977 32.7777 43.1353C32.7979 43.1878 33.2804 43.1895 42.2248 43.1684C47.409 43.1563 51.6506 43.1572 51.6506 43.1705C51.6506 43.2158 50.913 44.28 50.5061 44.8217C48.1845 47.9128 45.3311 50.4349 41.9556 52.3795C41.3042 52.7548 39.7589 53.5269 39.0995 53.8066C35.9956 55.1231 32.5812 55.9042 29.4045 56.0246C29.0623 56.0375 28.8637 56.0554 28.9285 56.0675C28.9895 56.0789 28.604 56.0884 28.0716 56.0886C27.5393 56.089 27.1465 56.0793 27.1989 56.0675V56.0675ZM3.67543 41.8508C3.36472 41.3362 2.63638 39.8766 2.32358 39.1416C0.931884 35.8716 0.206017 32.6573 0.0617146 29.1254L0.0398005 28.5891L1.49666 28.61C2.29793 28.6215 4.10348 28.6403 5.50898 28.6519L8.06443 28.6729L10.5647 23.6886C11.9398 20.9472 13.0561 18.69 13.0452 18.6725C13.0322 18.6514 11.1145 18.6407 7.36466 18.6407C4.25116 18.6407 1.69625 18.6286 1.68709 18.6138C1.65736 18.5657 2.13146 17.3661 2.51174 16.5272C4.14677 12.9201 6.51276 9.71102 9.47502 7.08273C13.9806 3.0851 19.6072 0.66246 25.6122 0.134501C25.9089 0.108413 26.4087 0.0770703 26.7229 0.0648498C27.0489 0.0521698 27.2532 0.0333902 27.1989 0.0211063C27.1465 0.00926771 27.5393 -0.000228228 28.0716 4.17669e-06C28.604 0.000234966 28.9895 0.00974015 28.9285 0.0211226C28.8636 0.0332036 29.0618 0.0511689 29.4045 0.0642824C31.9514 0.161739 34.826 0.71594 37.3064 1.58777C42.1025 3.27346 46.3291 6.2054 49.5908 10.1093C51.0387 11.8423 52.1702 13.5826 53.1891 15.6436C53.7973 16.8739 54.4724 18.4874 54.4277 18.6038C54.4116 18.6457 53.8073 18.6487 49.2298 18.6303C45.1278 18.6137 44.0343 18.6176 43.9744 18.6488C43.9167 18.6789 43.616 19.2736 42.7113 21.1462C42.0582 22.4981 41.5139 23.6142 41.5017 23.6264C41.4895 23.6386 38.1033 22.1073 33.9768 20.2236C29.8503 18.3399 26.4532 16.8028 26.4278 16.8079C26.4011 16.8132 24.991 19.6672 23.1013 23.5407C21.2972 27.2387 19.6932 30.5256 19.5368 30.8448C19.3805 31.1641 19.2597 31.4439 19.2685 31.4667C19.2772 31.4894 20.8705 32.1916 22.8091 33.027C24.7477 33.8624 26.3399 34.5614 26.3472 34.5803C26.359 34.6105 25.4387 36.3457 25.3764 36.4106C25.3558 36.4322 17.089 32.7217 17.0183 32.6591C17.0043 32.6467 18.5296 29.5222 20.4079 25.7158C22.2862 21.9094 23.8184 18.7711 23.8127 18.7417C23.8031 18.6919 23.5004 18.6883 19.3822 18.6883H14.962L9.37541 30.2961C6.30281 36.6804 3.77766 41.9157 3.76397 41.93C3.75027 41.9444 3.71043 41.9087 3.67543 41.8508ZM31.2701 16.9906C33.4301 16.7619 35.316 15.6202 36.5268 13.8082C37.9386 11.6954 38.1059 8.93504 36.9596 6.66816C36.4867 5.7329 35.9003 4.98847 35.1441 4.36334C34.102 3.50183 32.8823 2.9595 31.545 2.76296C31.0301 2.6873 30.0632 2.68721 29.5631 2.76279C27.4928 3.07569 25.7314 4.17854 24.6008 5.8699C23.175 8.00301 22.9878 10.6858 24.1048 12.9795C24.4808 13.7517 24.8909 14.326 25.4985 14.9313C26.569 15.9976 27.9236 16.6929 29.3886 16.9278C29.5981 16.9614 29.8265 16.9942 29.8964 17.0007C30.1796 17.0271 30.9812 17.0212 31.2701 16.9906V16.9906ZM50.7357 37.4399C49.7525 35.1156 48.9467 33.1925 48.9451 33.1663C48.9424 33.1244 54.894 20.2412 54.9349 20.2003C54.9658 20.1694 54.9853 20.2205 55.097 20.6264C55.6288 22.5593 55.9798 24.7879 56.0529 26.6964C56.066 27.0389 56.084 27.2369 56.0961 27.1721C56.1075 27.1111 56.1168 27.5036 56.1168 28.0443C56.1168 28.5851 56.1075 28.9775 56.0961 28.9165C56.084 28.8517 56.066 29.0497 56.0529 29.3922C55.9314 32.5645 55.15 35.9874 53.8555 39.0178C53.4709 39.9182 52.6044 41.6663 52.5429 41.666C52.5321 41.666 51.7189 39.7642 50.7357 37.4399ZM3.61213e-06 27.8223C2.43959e-05 27.4037 0.00454126 27.2368 0.0100374 27.4515C0.0155336 27.6662 0.0155231 28.0087 0.0100004 28.2126C0.00448117 28.4166 -2.30047e-05 28.241 8.84047e-08 27.8223H3.61213e-06Z" fill="white"/>
</svg>
